P2
# Created by GIMP version 2.10.18 PNM plug-in
50 30
255
255
255
255
255
255
255
255
255
255
255
255
255
255
255
255
255
255
255
255
255
255
255
255
255
255
255
255
255
255
255
255
255
255
255
255
255
255
255
255
255
255
255
255
255
255
255
255
255
255
255
255
255
255
255
255
255
255
255
255
255
255
255
255
255
255
255
255
255
255
255
255
255
255
255
255
255
255
255
255
255
255
255
255
255
255
255
255
255
255
255
255
255
255
255
255
255
255
255
255
255
255
255
255
255
255
255
255
255
255
255
255
255
255
255
255
255
255
255
255
255
255
255
255
255
255
255
255
255
255
255
255
255
255
255
255
255
255
255
255
255
255
255
255
255
255
255
255
255
255
255
255
255
255
255
255
255
255
255
255
255
255
255
255
255
255
255
255
255
255
255
255
255
255
255
255
255
255
255
255
255
255
255
255
255
255
255
255
255
255
255
255
255
255
255
255
255
255
255
255
255
255
255
255
255
255
255
255
255
255
255
255
255
255
255
255
255
255
255
255
255
255
255
255
255
255
255
255
255
255
255
255
255
255
255
255
255
255
255
255
255
255
255
255
255
255
255
255
255
255
255
255
255
255
255
255
255
255
255
255
255
255
255
255
255
255
255
255
255
255
255
255
255
255
255
255
255
255
255
255
255
255
255
255
255
255
255
255
255
255
255
255
255
255
255
255
255
255
255
255
255
255
255
255
187
130
130
130
130
130
139
158
191
237
255
255
255
255
255
255
255
255
254
242
232
225
222
221
225
232
242
254
255
255
255
255
169
70
70
70
70
70
74
101
149
208
254
255
255
255
255
255
255
255
187
130
130
130
130
130
130
130
130
132
215
255
255
255
255
255
255
245
224
220
220
220
220
220
220
220
220
222
241
255
255
255
169
70
70
70
70
70
70
70
70
70
147
251
255
255
255
255
255
255
187
130
177
255
255
255
246
221
151
130
133
242
255
255
255
255
241
220
220
224
240
249
253
254
252
246
236
222
220
250
255
255
169
70
154
255
255
255
251
236
176
70
70
188
255
255
255
255
255
255
187
130
177
255
255
255
255
255
235
130
130
208
255
255
255
248
221
220
230
253
255
255
255
255
255
255
255
253
236
250
255
255
169
70
154
255
255
255
255
255
255
156
70
114
255
255
255
255
255
255
187
130
177
255
255
255
255
255
255
144
130
191
255
255
255
230
220
225
253
255
255
255
255
255
255
255
255
255
255
255
255
255
169
70
154
255
255
255
255
255
255
203
70
70
253
255
255
255
255
255
187
130
177
255
255
255
255
255
255
143
130
195
255
255
250
220
220
241
255
255
255
255
255
255
255
255
255
255
255
255
255
255
169
70
154
255
255
255
255
255
255
203
70
88
255
255
255
255
255
255
187
130
177
255
255
255
255
255
234
130
130
215
255
255
242
220
220
251
255
255
255
255
255
255
255
255
255
255
255
255
255
255
169
70
154
255
255
255
255
255
255
157
70
144
255
255
255
255
255
255
187
130
177
255
255
255
247
221
150
130
149
251
255
255
237
220
222
255
255
255
255
255
255
255
255
255
255
255
255
255
255
255
169
70
154
255
255
255
251
237
179
70
76
222
255
255
255
255
255
255
187
130
130
130
130
130
130
130
130
167
241
255
255
255
234
220
225
255
255
255
255
255
255
236
220
220
220
220
220
234
255
255
169
70
70
70
70
70
70
70
70
145
223
255
255
255
255
255
255
255
187
130
130
130
130
130
130
130
142
228
255
255
255
255
234
220
225
255
255
255
255
255
255
236
220
220
220
220
220
234
255
255
169
70
70
70
70
70
70
70
70
94
179
250
255
255
255
255
255
255
187
130
177
255
255
252
238
184
130
134
234
255
255
255
237
220
222
255
255
255
255
255
255
255
255
255
255
231
220
234
255
255
169
70
154
255
255
255
254
243
215
122
70
139
253
255
255
255
255
255
187
130
177
255
255
255
255
255
178
130
156
253
255
255
242
220
220
251
255
255
255
255
255
255
255
255
255
231
220
234
255
255
169
70
154
255
255
255
255
255
255
239
79
70
207
255
255
255
255
255
187
130
177
255
255
255
255
255
243
133
130
215
255
255
250
220
220
241
255
255
255
255
255
255
255
255
255
231
220
234
255
255
169
70
154
255
255
255
255
255
255
255
131
70
168
255
255
255
255
255
187
130
177
255
255
255
255
255
255
189
130
153
253
255
255
230
220
225
253
255
255
255
255
255
255
255
255
231
220
234
255
255
169
70
154
255
255
255
255
255
255
255
130
70
151
255
255
255
255
255
187
130
177
255
255
255
255
255
255
239
130
130
221
255
255
248
221
220
231
254
255
255
255
255
255
255
255
231
220
234
255
255
169
70
154
255
255
255
255
255
255
239
79
70
177
255
255
255
255
255
187
130
177
255
255
255
255
255
255
255
178
130
162
255
255
255
241
220
220
225
240
249
253
255
252
246
234
221
220
234
255
255
169
70
154
255
255
255
254
244
215
122
70
72
231
255
255
255
255
255
187
130
177
255
255
255
255
255
255
255
231
130
130
228
255
255
255
245
223
220
220
220
220
220
220
220
220
220
233
252
255
255
169
70
70
70
70
70
70
70
70
70
76
201
255
255
255
255
255
255
187
130
177
255
255
255
255
255
255
255
255
167
130
172
255
255
255
255
254
242
232
225
222
221
224
230
239
251
255
255
255
255
169
70
70
70
70
70
70
88
128
178
235
255
255
255
255
255
255
255
255
255
255
255
255
255
255
255
255
255
255
255
255
255
255
255
255
255
255
255
255
255
255
255
255
255
255
255
255
255
255
255
255
255
255
255
255
255
255
255
255
255
255
255
255
255
255
255
255
255
255
255
255
255
255
255
255
255
255
255
255
255
255
255
255
255
255
255
255
255
255
255
255
255
255
255
255
255
255
255
255
255
255
255
255
255
255
255
255
255
255
255
255
255
255
255
255
255
255
255
255
255
255
255
255
255
255
255
255
255
255
255
255
255
255
255
255
255
255
255
255
255
255
255
255
255
255
255
255
255
255
255
255
255
255
255
255
255
255
255
255
255
255
255
255
255
255
255
255
255
255
255
255
255
255
255
255
255
255
255
255
255
255
255
255
255
255
255
255
255
255
255
255
255
255
255
255
255
255
255
255
255
255
255
255
255
255
255
255
255
255
255
255
255
255
255
255
255
255
255
255
255
255
255
255
255
255
255
255
255
255
255
255
255
255
255
255
255
255
255
255
255
255
255
255
255
255
255
255
255
255
255
255
255
255
255
255
255
255
255
255
255
255
255
255
255
255
255
255
255
255
255
255
255
255
255
255
255
255
255
255
255
255
255
255
255
255
255
255
255
255
255
255
255
255
255
255
255
255
255
255
255
255
255
255
255
255
255
255
255
255
255
255
255
255
255
255
