P3
# Created by GIMP version 2.10.18 PNM plug-in
50 30
255
255
255
255
255
255
255
255
255
255
255
255
255
255
255
255
255
255
255
255
255
255
255
255
255
255
255
255
255
255
255
255
255
255
255
255
255
255
255
255
255
255
255
255
255
255
255
255
255
255
255
255
255
255
255
255
255
255
255
255
255
255
255
255
255
255
255
255
255
255
255
255
255
255
255
255
255
255
255
255
255
255
255
255
255
255
255
255
255
255
255
255
255
255
255
255
255
255
255
255
255
255
255
255
255
255
255
255
255
255
255
255
255
255
255
255
255
255
255
255
255
255
255
255
255
255
255
255
255
255
255
255
255
255
255
255
255
255
255
255
255
255
255
255
255
255
255
255
255
255
255
255
255
255
255
255
255
255
255
255
255
255
255
255
255
255
255
255
255
255
255
255
255
255
255
255
255
255
255
255
255
255
255
255
255
255
255
255
255
255
255
255
255
255
255
255
255
255
255
255
255
255
255
255
255
255
255
255
255
255
255
255
255
255
255
255
255
255
255
255
255
255
255
255
255
255
255
255
255
255
255
255
255
255
255
255
255
255
255
255
255
255
255
255
255
255
255
255
255
255
255
255
255
255
255
255
255
255
255
255
255
255
255
255
255
255
255
255
255
255
255
255
255
255
255
255
255
255
255
255
255
255
255
255
255
255
255
255
255
255
255
255
255
255
255
255
255
255
255
255
255
255
255
255
255
255
255
255
255
255
255
255
255
255
255
255
255
255
255
255
255
255
255
255
255
255
255
255
255
255
255
255
255
255
255
255
255
255
255
255
255
255
255
255
255
255
255
255
255
255
255
255
255
255
255
255
255
255
255
255
255
255
255
255
255
255
255
255
255
255
255
255
255
255
255
255
255
255
255
255
255
255
255
255
255
255
255
255
255
255
255
255
255
255
255
255
255
255
255
255
255
255
255
255
255
255
255
255
255
255
255
255
255
255
255
255
255
255
255
255
255
255
255
255
255
255
255
255
255
255
255
255
255
255
255
255
255
255
255
255
255
255
255
255
255
255
255
255
255
255
255
255
255
255
255
255
255
255
255
255
255
255
255
255
255
255
255
255
255
255
255
255
255
255
255
255
255
255
255
255
255
255
255
255
255
255
255
255
255
255
255
255
255
255
255
255
255
255
255
255
255
255
255
255
255
255
255
255
255
255
255
255
255
255
255
255
255
255
255
255
255
255
255
255
255
255
255
255
255
255
255
255
255
255
255
255
255
255
255
255
255
255
255
255
255
255
255
255
255
255
255
255
255
255
255
255
255
255
255
255
255
255
255
255
255
255
255
255
255
255
255
255
255
255
255
255
255
255
255
255
255
255
255
255
255
255
255
255
255
255
255
255
255
255
255
255
255
255
255
255
255
255
255
255
255
255
255
255
255
255
255
255
255
255
255
255
255
255
255
255
255
255
255
255
255
255
255
255
255
255
255
255
255
255
255
255
255
255
255
255
255
255
255
255
255
255
255
255
255
255
255
255
255
255
255
255
255
255
255
255
255
255
255
255
255
255
255
255
255
255
255
255
255
255
255
255
255
255
255
255
255
255
255
255
255
255
255
255
255
255
255
255
255
255
255
255
255
255
255
255
255
255
255
255
255
255
255
255
255
255
255
255
255
255
255
255
255
255
255
255
255
255
255
255
255
255
255
255
255
255
255
255
255
255
255
255
255
255
255
255
255
255
255
255
255
255
255
255
255
255
255
255
255
255
255
255
255
255
255
255
255
255
255
255
255
255
255
255
255
255
255
255
255
255
255
255
255
255
255
255
255
255
255
255
255
255
255
255
255
255
255
255
255
255
255
255
255
255
255
255
255
255
255
255
255
255
255
255
255
255
255
255
255
255
255
255
255
255
255
255
255
255
255
255
255
255
255
255
255
255
255
255
255
255
255
255
255
255
255
255
255
255
255
255
255
255
255
255
255
255
255
255
255
255
255
255
255
255
255
255
255
255
255
255
255
255
255
255
255
255
255
255
255
255
255
255
255
255
255
255
255
255
255
255
255
255
255
255
255
255
255
255
255
255
255
255
255
255
255
255
255
255
255
255
255
255
255
255
255
255
255
161
161
255
0
0
255
0
0
255
0
0
255
0
0
255
0
0
255
59
59
255
109
109
255
167
167
255
232
232
255
255
255
255
255
255
255
255
255
255
255
255
255
255
255
255
255
255
255
255
255
255
255
255
251
255
251
203
255
203
152
255
152
98
255
98
59
255
59
50
255
50
95
255
95
152
255
152
203
255
203
250
255
250
255
255
255
255
255
255
255
255
255
255
255
255
161
161
255
0
0
255
0
0
255
0
0
255
0
0
255
0
0
255
22
22
255
77
77
255
138
138
255
204
204
255
254
254
255
255
255
255
255
255
255
255
255
255
255
255
255
255
255
255
255
255
255
255
255
255
255
161
161
255
0
0
255
0
0
255
0
0
255
0
0
255
0
0
255
0
0
255
0
0
255
0
0
255
28
28
255
202
202
255
255
255
255
255
255
255
255
255
255
255
255
255
255
255
255
255
255
215
255
215
85
255
85
0
255
0
0
255
0
0
255
0
0
255
0
0
255
0
0
255
0
0
255
0
0
255
0
69
255
69
200
255
200
254
255
254
255
255
255
255
255
255
161
161
255
0
0
255
0
0
255
0
0
255
0
0
255
0
0
255
0
0
255
0
0
255
0
0
255
0
0
255
136
136
255
251
251
255
255
255
255
255
255
255
255
255
255
255
255
255
255
255
255
255
255
255
255
161
161
255
0
0
255
144
144
255
255
255
255
255
255
255
255
255
255
243
243
255
210
210
255
93
93
255
0
0
255
34
34
255
238
238
255
255
255
255
255
255
255
255
255
255
255
255
201
255
201
13
255
13
0
255
0
92
255
92
194
255
194
233
255
233
248
255
248
252
255
252
244
255
244
220
255
220
175
255
175
69
255
69
0
255
0
235
255
235
255
255
255
255
255
255
161
161
255
0
0
255
144
144
255
255
255
255
255
255
255
255
255
255
251
251
255
235
235
255
169
169
255
0
0
255
0
0
255
182
182
255
255
255
255
255
255
255
255
255
255
255
255
255
255
255
255
255
255
255
255
161
161
255
0
0
255
144
144
255
255
255
255
255
255
255
255
255
255
255
255
255
255
255
255
229
229
255
0
0
255
0
0
255
192
192
255
255
255
255
255
255
255
255
255
229
255
229
34
255
34
0
255
0
143
255
143
249
255
249
255
255
255
255
255
255
255
255
255
255
255
255
255
255
255
255
255
255
255
255
255
249
255
249
175
255
175
236
255
236
255
255
255
255
255
255
161
161
255
0
0
255
144
144
255
255
255
255
255
255
255
255
255
255
255
255
255
255
255
255
255
255
255
147
147
255
0
0
255
95
95
255
255
255
255
255
255
255
255
255
255
255
255
255
255
255
255
255
255
255
255
161
161
255
0
0
255
144
144
255
255
255
255
255
255
255
255
255
255
255
255
255
255
255
255
255
255
255
77
77
255
0
0
255
166
166
255
255
255
255
255
255
255
255
255
138
255
138
0
255
0
98
255
98
249
255
249
255
255
255
255
255
255
255
255
255
255
255
255
255
255
255
255
255
255
255
255
255
255
255
255
255
255
255
255
255
255
255
255
255
255
255
255
255
255
255
161
161
255
0
0
255
144
144
255
255
255
255
255
255
255
255
255
255
255
255
255
255
255
255
255
255
255
199
199
255
0
0
255
0
0
255
253
253
255
255
255
255
255
255
255
255
255
255
255
255
255
255
255
255
255
161
161
255
0
0
255
144
144
255
255
255
255
255
255
255
255
255
255
255
255
255
255
255
255
255
255
255
73
73
255
0
0
255
172
172
255
255
255
255
255
255
238
255
238
0
255
0
0
255
0
199
255
199
255
255
255
255
255
255
255
255
255
255
255
255
255
255
255
255
255
255
255
255
255
255
255
255
255
255
255
255
255
255
255
255
255
255
255
255
255
255
255
255
255
255
161
161
255
0
0
255
144
144
255
255
255
255
255
255
255
255
255
255
255
255
255
255
255
255
255
255
255
199
199
255
0
0
255
56
56
255
255
255
255
255
255
255
255
255
255
255
255
255
255
255
255
255
255
255
255
161
161
255
0
0
255
144
144
255
255
255
255
255
255
255
255
255
255
255
255
255
255
255
255
227
227
255
0
0
255
0
0
255
202
202
255
255
255
255
255
255
205
255
205
0
255
0
0
255
0
240
255
240
255
255
255
255
255
255
255
255
255
255
255
255
255
255
255
255
255
255
255
255
255
255
255
255
255
255
255
255
255
255
255
255
255
255
255
255
255
255
255
255
255
255
161
161
255
0
0
255
144
144
255
255
255
255
255
255
255
255
255
255
255
255
255
255
255
255
255
255
255
148
148
255
0
0
255
132
132
255
255
255
255
255
255
255
255
255
255
255
255
255
255
255
255
255
255
255
255
161
161
255
0
0
255
144
144
255
255
255
255
255
255
255
255
255
255
244
244
255
210
210
255
92
92
255
0
0
255
88
88
255
250
250
255
255
255
255
255
255
178
255
178
0
255
0
66
255
66
255
255
255
255
255
255
255
255
255
255
255
255
255
255
255
255
255
255
255
255
255
255
255
255
255
255
255
255
255
255
255
255
255
255
255
255
255
255
255
255
255
255
255
255
255
161
161
255
0
0
255
144
144
255
255
255
255
255
255
255
255
255
255
251
251
255
236
236
255
172
172
255
0
0
255
28
28
255
220
220
255
255
255
255
255
255
255
255
255
255
255
255
255
255
255
255
255
255
255
255
161
161
255
0
0
255
0
0
255
0
0
255
0
0
255
0
0
255
0
0
255
0
0
255
0
0
255
126
126
255
237
237
255
255
255
255
255
255
255
255
255
165
255
165
0
255
0
99
255
99
255
255
255
255
255
255
255
255
255
255
255
255
255
255
255
255
255
255
173
255
173
0
255
0
0
255
0
0
255
0
0
255
0
0
255
0
164
255
164
255
255
255
255
255
255
161
161
255
0
0
255
0
0
255
0
0
255
0
0
255
0
0
255
0
0
255
0
0
255
0
0
255
134
134
255
221
221
255
255
255
255
255
255
255
255
255
255
255
255
255
255
255
255
255
255
255
255
255
255
255
161
161
255
0
0
255
0
0
255
0
0
255
0
0
255
0
0
255
0
0
255
0
0
255
69
69
255
220
220
255
255
255
255
255
255
255
255
255
255
255
255
165
255
165
0
255
0
99
255
99
255
255
255
255
255
255
255
255
255
255
255
255
255
255
255
255
255
255
173
255
173
0
255
0
0
255
0
0
255
0
0
255
0
0
255
0
164
255
164
255
255
255
255
255
255
161
161
255
0
0
255
0
0
255
0
0
255
0
0
255
0
0
255
0
0
255
0
0
255
0
0
255
66
66
255
172
172
255
250
250
255
255
255
255
255
255
255
255
255
255
255
255
255
255
255
255
255
255
255
255
161
161
255
0
0
255
144
144
255
255
255
255
255
255
255
251
251
255
233
233
255
155
155
255
0
0
255
38
38
255
227
227
255
255
255
255
255
255
255
255
255
178
255
178
0
255
0
66
255
66
255
255
255
255
255
255
255
255
255
255
255
255
255
255
255
255
255
255
255
255
255
255
255
255
255
255
255
255
255
255
144
255
144
0
255
0
164
255
164
255
255
255
255
255
255
161
161
255
0
0
255
144
144
255
255
255
255
255
255
255
255
255
255
254
254
255
242
242
255
212
212
255
106
106
255
0
0
255
126
126
255
253
253
255
255
255
255
255
255
255
255
255
255
255
255
255
255
255
255
255
161
161
255
0
0
255
144
144
255
255
255
255
255
255
255
255
255
255
255
255
255
255
255
255
146
146
255
0
0
255
104
104
255
253
253
255
255
255
255
255
255
205
255
205
0
255
0
0
255
0
241
255
241
255
255
255
255
255
255
255
255
255
255
255
255
255
255
255
255
255
255
255
255
255
255
255
255
255
255
255
144
255
144
0
255
0
164
255
164
255
255
255
255
255
255
161
161
255
0
0
255
144
144
255
255
255
255
255
255
255
255
255
255
255
255
255
255
255
255
255
255
255
238
238
255
38
38
255
0
0
255
203
203
255
255
255
255
255
255
255
255
255
255
255
255
255
255
255
255
255
161
161
255
0
0
255
144
144
255
255
255
255
255
255
255
255
255
255
255
255
255
255
255
255
239
239
255
34
34
255
0
0
255
202
202
255
255
255
255
255
255
238
255
238
0
255
0
0
255
0
199
255
199
255
255
255
255
255
255
255
255
255
255
255
255
255
255
255
255
255
255
255
255
255
255
255
255
255
255
255
144
255
144
0
255
0
164
255
164
255
255
255
255
255
255
161
161
255
0
0
255
144
144
255
255
255
255
255
255
255
255
255
255
255
255
255
255
255
255
255
255
255
255
255
255
117
117
255
0
0
255
160
160
255
255
255
255
255
255
255
255
255
255
255
255
255
255
255
255
255
161
161
255
0
0
255
144
144
255
255
255
255
255
255
255
255
255
255
255
255
255
255
255
255
255
255
255
163
163
255
0
0
255
99
99
255
253
253
255
255
255
255
255
255
138
255
138
0
255
0
99
255
99
249
255
249
255
255
255
255
255
255
255
255
255
255
255
255
255
255
255
255
255
255
255
255
255
255
255
255
144
255
144
0
255
0
164
255
164
255
255
255
255
255
255
161
161
255
0
0
255
144
144
255
255
255
255
255
255
255
255
255
255
255
255
255
255
255
255
255
255
255
255
255
255
115
115
255
0
0
255
141
141
255
255
255
255
255
255
255
255
255
255
255
255
255
255
255
255
255
161
161
255
0
0
255
144
144
255
255
255
255
255
255
255
255
255
255
255
255
255
255
255
255
255
255
255
234
234
255
0
0
255
0
0
255
210
210
255
255
255
255
255
255
229
255
229
34
255
34
0
255
0
146
255
146
250
255
250
255
255
255
255
255
255
255
255
255
255
255
255
255
255
255
255
255
255
255
255
255
144
255
144
0
255
0
164
255
164
255
255
255
255
255
255
161
161
255
0
0
255
144
144
255
255
255
255
255
255
255
255
255
255
255
255
255
255
255
255
255
255
255
238
238
255
38
38
255
0
0
255
170
170
255
255
255
255
255
255
255
255
255
255
255
255
255
255
255
255
255
161
161
255
0
0
255
144
144
255
255
255
255
255
255
255
255
255
255
255
255
255
255
255
255
255
255
255
255
255
255
145
145
255
0
0
255
118
118
255
255
255
255
255
255
255
255
255
201
255
201
13
255
13
0
255
0
95
255
95
195
255
195
234
255
234
249
255
249
254
255
254
246
255
246
223
255
223
163
255
163
46
255
46
0
255
0
165
255
165
255
255
255
255
255
255
161
161
255
0
0
255
144
144
255
255
255
255
255
255
255
255
255
255
254
254
255
243
243
255
212
212
255
106
106
255
0
0
255
13
13
255
229
229
255
255
255
255
255
255
255
255
255
255
255
255
255
255
255
255
255
161
161
255
0
0
255
144
144
255
255
255
255
255
255
255
255
255
255
255
255
255
255
255
255
255
255
255
255
255
255
224
224
255
0
0
255
0
0
255
220
220
255
255
255
255
255
255
255
255
255
215
255
215
83
255
83
0
255
0
0
255
0
0
255
0
0
255
0
0
255
0
0
255
0
0
255
0
0
255
0
22
255
22
159
255
159
244
255
244
255
255
255
255
255
255
161
161
255
0
0
255
0
0
255
0
0
255
0
0
255
0
0
255
0
0
255
0
0
255
0
0
255
0
0
255
28
28
255
197
197
255
255
255
255
255
255
255
255
255
255
255
255
255
255
255
255
255
255
255
255
161
161
255
0
0
255
144
144
255
255
255
255
255
255
255
255
255
255
255
255
255
255
255
255
255
255
255
255
255
255
255
255
255
126
126
255
0
0
255
136
136
255
255
255
255
255
255
255
255
255
255
255
255
251
255
251
202
255
202
151
255
151
98
255
98
56
255
56
46
255
46
88
255
88
140
255
140
189
255
189
240
255
240
255
255
255
255
255
255
255
255
255
255
255
255
161
161
255
0
0
255
0
0
255
0
0
255
0
0
255
0
0
255
0
0
255
56
56
255
113
113
255
171
171
255
234
234
255
255
255
255
255
255
255
255
255
255
255
255
255
255
255
255
255
255
255
255
255
255
255
255
255
255
255
255
255
255
255
255
255
255
255
255
255
255
255
255
255
255
255
255
255
255
255
255
255
255
255
255
255
255
255
255
255
255
255
255
255
255
255
255
255
255
255
255
255
255
255
255
255
255
255
255
255
255
255
255
255
255
255
255
255
255
255
255
255
255
255
255
255
255
255
255
255
255
255
255
255
255
255
255
255
255
255
255
255
255
255
255
255
255
255
255
255
255
255
255
255
255
255
255
255
255
255
255
255
255
255
255
255
255
255
255
255
255
255
255
255
255
255
255
255
255
255
255
255
255
255
255
255
255
255
255
255
255
255
255
255
255
255
255
255
255
255
255
255
255
255
255
255
255
255
255
255
255
255
255
255
255
255
255
255
255
255
255
255
255
255
255
255
255
255
255
255
255
255
255
255
255
255
255
255
255
255
255
255
255
255
255
255
255
255
255
255
255
255
255
255
255
255
255
255
255
255
255
255
255
255
255
255
255
255
255
255
255
255
255
255
255
255
255
255
255
255
255
255
255
255
255
255
255
255
255
255
255
255
255
255
255
255
255
255
255
255
255
255
255
255
255
255
255
255
255
255
255
255
255
255
255
255
255
255
255
255
255
255
255
255
255
255
255
255
255
255
255
255
255
255
255
255
255
255
255
255
255
255
255
255
255
255
255
255
255
255
255
255
255
255
255
255
255
255
255
255
255
255
255
255
255
255
255
255
255
255
255
255
255
255
255
255
255
255
255
255
255
255
255
255
255
255
255
255
255
255
255
255
255
255
255
255
255
255
255
255
255
255
255
255
255
255
255
255
255
255
255
255
255
255
255
255
255
255
255
255
255
255
255
255
255
255
255
255
255
255
255
255
255
255
255
255
255
255
255
255
255
255
255
255
255
255
255
255
255
255
255
255
255
255
255
255
255
255
255
255
255
255
255
255
255
255
255
255
255
255
255
255
255
255
255
255
255
255
255
255
255
255
255
255
255
255
255
255
255
255
255
255
255
255
255
255
255
255
255
255
255
255
255
255
255
255
255
255
255
255
255
255
255
255
255
255
255
255
255
255
255
255
255
255
255
255
255
255
255
255
255
255
255
255
255
255
255
255
255
255
255
255
255
255
255
255
255
255
255
255
255
255
255
255
255
255
255
255
255
255
255
255
255
255
255
255
255
255
255
255
255
255
255
255
255
255
255
255
255
255
255
255
255
255
255
255
255
255
255
255
255
255
255
255
255
255
255
255
255
255
255
255
255
255
255
255
255
255
255
255
255
255
255
255
255
255
255
255
255
255
255
255
255
255
255
255
255
255
255
255
255
255
255
255
255
255
255
255
255
255
255
255
255
255
255
255
255
255
255
255
255
255
255
255
255
255
255
255
255
255
255
255
255
255
255
255
255
255
255
255
255
255
255
255
255
255
255
255
255
255
255
255
255
255
255
255
255
255
255
255
255
255
255
255
255
255
255
255
255
255
255
255
255
255
255
255
255
255
255
255
255
255
255
255
255
255
255
255
255
255
255
255
255
255
255
255
255
255
255
255
255
255
255
255
255
255
255
255
255
255
255
255
255
255
255
255
255
255
255
255
255
255
255
255
255
255
255
255
255
255
255
255
255
255
255
255
255
255
255
255
255
255
255
255
255
255
255
255
255
255
255
255
255
255
255
255
255
255
255
255
255
255
255
255
255
255
255
255
255
255
255
255
255
255
255
255
255
255
255
255
255
255
255
255
255
255
255
255
255
255
255
255
255
255
255
255
255
255
255
255
255
255
255
255
255
255
255
255
255
255
255
255
255
255
255
255
255
255
255
255
255
255
255
255
255
255
255
255
255
255
255
255
255
255
255
255
255
255
255
255
255
255
255
255
255
255
255
255
255
255
255
255
255
255
255
255
255
255
255
255
255
255
255
255
255
255
255
255
255
255
255
255
255
255
255
255
255
255
255
255
255
255
255
255
255
255
255
255
255
255
255
255
255
255
255
255
255
255
255
255
255
255
255
255
255
255
255
255
255
255
255
255
255
255
255
255
